<svg width="92" height="92" viewBox="0 0 92 92" fill="none" xmlns="http://www.w3.org/2000/svg">
<path id="Subtract" fill-rule="evenodd" clip-rule="evenodd" d="M0 91.5574C50.4391 91.5574 91.3261 50.6001 91.3261 0.0742188H0V91.5574ZM35.8408 29.2665L47.1715 17.9358C47.826 17.2813 48.8785 17.2822 49.5341 17.9379L55.3005 23.7043C55.9508 24.3546 55.9571 25.4124 55.3026 26.0669L43.9719 37.3976L55.3221 48.7477C55.9777 49.4034 55.9786 50.4558 55.3241 51.1103L49.5676 56.8669C48.9184 57.516 47.8606 57.5205 47.205 56.8648L35.8548 45.5147L24.5241 56.8453C23.8696 57.4999 22.8172 57.4989 22.1616 56.8433L16.3951 51.0769C15.7395 50.4212 15.7386 49.3688 16.3931 48.7143L27.7238 37.3836L16.3736 26.0334C15.718 25.3778 15.717 24.3254 16.3716 23.6709L22.1281 17.9143C22.7826 17.2598 23.835 17.2607 24.4907 17.9164L35.8408 29.2665Z" fill="#CEFF00"/>
</svg>
