<?xml version="1.0" encoding="utf-8"?>
<!-- Generator: Adobe Illustrator 27.8.1, SVG Export Plug-In . SVG Version: 6.00 Build 0)  -->
<svg version="1.1" id="Layer_1" xmlns="http://www.w3.org/2000/svg" xmlns:xlink="http://www.w3.org/1999/xlink" x="0px" y="0px"
	 width="32.1px" height="24px" viewBox="0 0 32.1 24" style="enable-background:new 0 0 32.1 24;" xml:space="preserve">
<g>
	<path d="M27.1,2c1.7,0,3,1.3,3,3v14c0,1.7-1.3,3-3,3H5c-1.7,0-3-1.3-3-3V5c0-1.7,1.3-3,3-3H27.1 M27.1,0H5C2.3,0,0,2.2,0,5v14
		c0,2.8,2.2,5,5,5h22.1c2.8,0,5-2.2,5-5V5C32.1,2.2,29.8,0,27.1,0L27.1,0z"/>
</g>
<path d="M16,13c-0.3,0-0.5-0.1-0.7-0.3L1.4,2.9l1.4-1.4L16,10.6l13.2-9.2l1.4,1.4l-13.9,9.9C16.6,12.9,16.3,13,16,13z"/>
</svg>
