<?xml version="1.0" encoding="UTF-8"?>
<svg id="Capa_1" data-name="Capa 1" xmlns="http://www.w3.org/2000/svg" width="800" height="543.11" viewBox="0 0 800 543.11">
  <path d="m702.28,0H97.72C43.84,0,0,43.84,0,97.72v347.67c0,53.88,43.84,97.72,97.72,97.72h604.56c53.88,0,97.72-43.84,97.72-97.72V97.73c.01-53.89-43.83-97.73-97.72-97.73Zm-47.75,63.75l-254.53,163.99L145.47,63.75h509.07Zm47.75,415.62H97.72c-18.73,0-33.97-15.25-33.97-33.97V99.54l316.58,203.58c.43.27.88.45,1.32.69.46.25.92.5,1.39.73,2.45,1.26,4.98,2.28,7.57,2.95.27.07.53.11.8.17,2.84.67,5.71,1.08,8.57,1.08h.06c2.87,0,5.74-.4,8.57-1.08.27-.06.53-.1.8-.17,2.58-.67,5.1-1.69,7.57-2.95.47-.23.94-.48,1.39-.73.44-.24.89-.43,1.32-.69l316.58-203.58v345.85c-.01,18.73-15.26,33.98-33.99,33.98Z" style="stroke-width: 0px;"/>
</svg>