<svg width="92" height="92" viewBox="0 0 92 92" fill="none" xmlns="http://www.w3.org/2000/svg">
<path id="open-button" fill-rule="evenodd" clip-rule="evenodd" d="M0 91.5574C50.4391 91.5574 91.3261 50.6001 91.3261 0.0742188H0V91.5574ZM41.5875 31.6406H57.6115C58.5371 31.6406 59.2806 32.3854 59.2806 33.3126V41.4676C59.2806 42.3872 58.5371 43.1396 57.6115 43.1396H41.5875V59.1912C41.5875 60.1184 40.8439 60.8632 39.9183 60.8632H31.7773C30.8593 60.8632 30.1082 60.1184 30.1082 59.1912V43.1396H14.0842C13.1586 43.1396 12.415 42.3948 12.415 41.4676V33.3126C12.415 32.3854 13.1586 31.6406 14.0842 31.6406H30.1082V15.589C30.1082 14.6618 30.8517 13.917 31.7773 13.917H39.9183C40.8439 13.917 41.5875 14.6618 41.5875 15.589V31.6406Z" fill="#CEFF00"/>
</svg>
